<?xml version="1.0" encoding="utf-8"?>
<!-- Generator: Adobe Illustrator 21.0.0, SVG Export Plug-In . SVG Version: 6.00 Build 0)  -->
<svg version="1.0" id="Layer_1" xmlns="http://www.w3.org/2000/svg" xmlns:xlink="http://www.w3.org/1999/xlink" x="0px" y="0px"
	 viewBox="0 0 2639.5 608.8" style="enable-background:new 0 0 2639.5 608.8;" xml:space="preserve">
<style type="text/css">
	.st0{fill:#97040C;}
	.st1{fill:#FFFFFF;}
</style>
<rect class="st0" width="2639.5" height="608.8"/>
<path id="XMLID_7_" class="st1" d="M282.3,135h23.9l155.5,336.3h-37.2L382,377.8H205l-42.5,93.5h-35.7L282.3,135z M371.5,345.3
	l-77.8-173.1l-78.2,173.1H371.5z"/>
<path id="XMLID_10_" class="st1" d="M515.1,332.4V137.3h34.8V330c0,78.7,32.4,114,103,114c67.7,0,101.1-31,101.1-111.6V137.3h34.8
	v192.2c0,95.9-55.8,146.9-136.9,146.9C571.8,476.5,515.1,425.9,515.1,332.4z"/>
<path id="XMLID_12_" class="st1" d="M965.3,170.3H859v-33h257.5v32.9h-116.3v301h-34.8V170.3H965.3z"/>
<path id="XMLID_17_" class="st1" d="M1571.1,137.3h34.8v301h186v32.9H1571L1571.1,137.3L1571.1,137.3z"/>
<path id="XMLID_19_" class="st1" d="M1993.3,135h23.8l155.5,336.3h-37.2l-42.5-93.5h-177l-42.5,93.5h-35.8L1993.3,135z
	 M2082.5,345.3l-77.8-173.1l-78.2,173.1H2082.5z"/>
<path id="XMLID_22_" class="st1" d="M2243.2,137.3h137.9c37.7,0,68.2,11,86.8,29.6c13.8,13.8,21.5,31.5,21.5,52.5v1
	c0,45.3-29.6,68.2-56.8,79.2c40.1,10.5,75.4,33.4,75.4,79.7v1c0,55.8-47.7,91.1-119.7,91.1h-145L2243.2,137.3L2243.2,137.3z
	 M2378.2,281.4c50.1,0,75.9-14.3,75.9-58.7v-1c0-36.7-20-51.5-73.5-51.5H2278v111.2H2378.2z M2389.2,438.3
	c57.2,0,83.5-16.2,83.5-58.2v-1c0-41-25.8-54.9-91.6-54.9h-103v114L2389.2,438.3L2389.2,438.3z"/>
<path id="XMLID_32_" class="st1" d="M1486.7,303.3c0-34.3-9.4-67.1-26.5-94.7l-23.4,30.4c9.5,19.5,14.7,41.8,14.7,65.3v0.9
	c0,77-55.2,139.3-132.2,139.3c-13.3,0-28-2.9-39.9-6.4l-20.5,26.9c17.8,6.4,38.4,11.9,59.5,11.9c101.1,0,168.4-81.6,168.4-172.7
	C1487.2,303.8,1487.2,303.8,1486.7,303.3z"/>
<path id="XMLID_33_" class="st1" d="M1186.1,304.3v-0.9c0-77,55.2-139.3,132.2-139.3c33.9,0,63.7,12.2,86.5,32.5l23.5-25.4
	c-28.2-24.5-65.3-39.5-109.1-39.5c-101.1,0-168.4,81.6-168.4,172.7v1c0,2.9,0.1,3.9,0.2,6.8l40.2,31.8
	C1187.9,331.2,1186.1,318,1186.1,304.3z"/>
<polygon id="XMLID_2_" class="st1" points="1130.1,306.4 1238.2,393.2 1460.6,149.2 1481.2,165.8 1242.6,469.7 1108.2,323.2 "/>
</svg>
