<?xml version="1.0" encoding="utf-8"?>
<!-- Generator: Adobe Illustrator 21.0.0, SVG Export Plug-In . SVG Version: 6.00 Build 0)  -->
<svg version="1.1" id="Layer_1" xmlns="http://www.w3.org/2000/svg" xmlns:xlink="http://www.w3.org/1999/xlink" x="0px" y="0px"
	 viewBox="0 0 495.9 500" style="enable-background:new 0 0 495.9 500;" xml:space="preserve">
<style type="text/css">
	.st0{fill:#B50B0B;}
	.st1{fill:#FFFFFF;}
</style>
<circle class="st0" cx="250" cy="252" r="239"/>
<path id="XMLID_32_" class="st1" d="M417.6,251.4c0-34.3-9.4-67.1-26.5-94.7l-23.4,30.4c9.5,19.5,14.7,41.8,14.7,65.3v0.9
	c0,77-55.2,139.3-132.2,139.3c-13.3,0-28-2.9-39.9-6.4l-20.5,26.9c17.8,6.4,38.4,11.9,59.5,11.9c101.1,0,168.4-81.6,168.4-172.7
	C418,251.9,418,251.9,417.6,251.4z"/>
<path id="XMLID_33_" class="st1" d="M117,252.4v-0.9c0-77,55.2-139.3,132.2-139.3c33.9,0,63.7,12.2,86.5,32.5l23.5-25.4
	C331,94.8,293.8,79.7,250.1,79.7C149,79.7,81.7,161.3,81.7,252.4v1c0,2.9,0.1,3.9,0.2,6.8l40.2,31.8
	C118.8,279.3,117,266.1,117,252.4z"/>
<polygon id="XMLID_2_" class="st1" points="61,254.4 169.1,341.3 391.5,97.3 412.1,113.9 173.4,417.8 39.1,271.3 "/>
</svg>
