<?xml version="1.0" encoding="utf-8"?>
<!-- Generator: Adobe Illustrator 21.0.0, SVG Export Plug-In . SVG Version: 6.00 Build 0)  -->
<svg version="1.1" id="Layer_1" xmlns="http://www.w3.org/2000/svg" xmlns:xlink="http://www.w3.org/1999/xlink" x="0px" y="0px"
	 viewBox="0 0 72 19" style="enable-background:new 0 0 72 19;" xml:space="preserve">
<style type="text/css">
	.st0{fill:#81D1DF;}
	.st1{fill:#5C3A57;}
	.st2{fill:#49C4A1;}
	.st3{fill:#E62A6D;}
	.st4{fill:#EDB525;}
	.st5{fill:#DFA22F;}
	.st6{fill:#3CB187;}
	.st7{fill:#CE1E5B;}
	.st8{fill:#392538;}
	.st9{fill:#BB242A;}
	.st10{fill:#72C5CD;}
	.st11{fill:#248C73;}
	.st12{fill:#62803A;}
	.st13{enable-background:new    ;}
	.st14{fill:#484848;}
</style>
<g id="CUHFOO.tif">
	<g>
		<path class="st0" d="M13.3,19c-4.4,0-8.8,0-13.2,0c0-6.3,0-12.6,0-18.9c4.4,0,8.8,0,13.2,0c0,0.4,0,0.7,0,1.1c-4,0-8.1,0-12.1,0
			c0,5.6,0,11.1,0,16.7c4,0,8.1,0,12.1,0C13.3,18.3,13.3,18.6,13.3,19z"/>
		<path class="st1" d="M58.8,0.1c4.4,0,8.8,0,13.2,0c0,6.3,0,12.6,0,18.9c-4.4,0-8.8,0-13.2,0c0-0.4,0-0.7,0-1.1c4,0,8.1,0,12.1,0
			c0-5.6,0-11.1,0-16.7c-4,0-8.1,0-12.1,0C58.8,0.8,58.8,0.4,58.8,0.1z"/>
		<path class="st2" d="M13.3,1.2c0-0.4,0-0.7,0-1.1c5.1,0,10.1,0,15.2,0c0,0.4,0,0.7,0,1.1C23.4,1.2,18.4,1.2,13.3,1.2z"/>
		<path class="st3" d="M58.8,0.1c0,0.4,0,0.7,0,1.1c-5.1,0-10.1,0-15.2,0c0-0.4,0-0.7,0-1.1C48.7,0.1,53.8,0.1,58.8,0.1z"/>
		<path class="st2" d="M13.3,19c0-0.4,0-0.7,0-1.1c5.1,0,10.1,0,15.2,0c0,0.4,0,0.7,0,1.1C23.4,19,18.4,19,13.3,19z"/>
		<path class="st3" d="M58.8,17.9c0,0.4,0,0.7,0,1.1c-5.1,0-10.1,0-15.2,0c0-0.4,0-0.7,0-1.1C48.7,17.9,53.8,17.9,58.8,17.9z"/>
		<path class="st4" d="M43.6,0.1c0,0.4,0,0.7,0,1.1c-5,0-10,0-15,0c0-0.4,0-0.7,0-1.1C33.6,0.1,38.6,0.1,43.6,0.1z"/>
		<path class="st4" d="M28.5,19c0-0.4,0-0.7,0-1.1c5,0,10,0,15.1,0c0,0.4,0,0.7,0,1.1C38.5,19,33.5,19,28.5,19z"/>
		<path class="st4" d="M28.6,0.1c0,0.4,0,0.7,0,1.1h-0.1c0-0.4,0-0.7,0-1.1C28.5,0.1,28.5,0.1,28.6,0.1z"/>
		<path class="st4" d="M43.5,19c0-0.4,0-0.7,0-1.1h0.1C43.6,18.3,43.6,18.6,43.5,19C43.6,19,43.6,19,43.5,19z"/>
	</g>
</g>
<g>
	<path class="st5" d="M12.7,5.9c-0.1-0.4-0.6-0.7-1.1-0.5C11.2,5.5,11,6,11.1,6.5l2.2,6.7c0.1,0.4,0.6,0.6,1,0.5s0.7-0.6,0.6-1
		L12.7,5.9"/>
	<path class="st6" d="M9.3,7c-0.1-0.4-0.6-0.6-1-0.5C7.8,6.6,7.6,7.1,7.7,7.6l2.2,6.7c0.1,0.4,0.6,0.6,1,0.5s0.7-0.6,0.6-1L9.3,7"/>
	<path class="st7" d="M15.4,11.5c0.4-0.1,0.7-0.6,0.5-1.1c-0.1-0.4-0.6-0.7-1.1-0.5L8.2,12c-0.4,0.1-0.6,0.6-0.5,1s0.6,0.7,1,0.6
		L15.4,11.5"/>
	<path class="st8" d="M9.6,13.4l1.6-0.5l-0.5-1.6l-1.6,0.5L9.6,13.4"/>
	<path class="st9" d="M13,12.3c0.6-0.2,1.2-0.4,1.6-0.5l-0.5-1.6l-1.6,0.5L13,12.3"/>
	<path class="st10" d="M14.3,8.1c0.5-0.1,0.7-0.6,0.6-1s-0.6-0.7-1.1-0.5L7.1,8.7c-0.4,0.1-0.6,0.6-0.5,1s0.6,0.7,1,0.6L14.3,8.1"/>
	<path class="st11" d="M8.5,10c0.4-0.1,1-0.3,1.6-0.5C9.9,8.9,9.7,8.3,9.6,7.9L8,8.4L8.5,10"/>
	<path class="st12" d="M11.9,8.9l1.6-0.5c-0.2-0.5-0.3-1.1-0.5-1.6l-1.6,0.5L11.9,8.9"/>
</g>
<g class="st13">
	<path class="st14" d="M20,11.6l0.4-0.8c0.2,0.2,0.4,0.3,0.8,0.3c0.4,0,0.7-0.3,0.7-0.8V7.2h1v3.2c0,1.1-0.7,1.6-1.7,1.6
		C20.8,12,20.4,11.9,20,11.6z"/>
	<path class="st14" d="M23.7,10.2c0-1,0.7-1.8,1.8-1.8c1.1,0,1.8,0.8,1.8,1.8c0,1-0.7,1.8-1.8,1.8C24.4,12,23.7,11.2,23.7,10.2z
		 M26.4,10.2c0-0.5-0.3-1-0.9-1c-0.6,0-0.9,0.5-0.9,1c0,0.5,0.3,1,0.9,1C26.1,11.2,26.4,10.8,26.4,10.2z"/>
	<path class="st14" d="M27.9,7.7c0-0.2,0.2-0.4,0.5-0.4c0.3,0,0.5,0.2,0.5,0.4c0,0.2-0.2,0.4-0.5,0.4C28.2,8.2,27.9,8,27.9,7.7z
		 M28,12V8.5h0.9V12H28z"/>
	<path class="st14" d="M32.2,12V9.9c0-0.5-0.2-0.6-0.6-0.6c-0.4,0-0.6,0.2-0.8,0.4V12h-0.9V8.5h0.9V9c0.2-0.3,0.6-0.5,1.2-0.5
		c0.8,0,1.1,0.4,1.1,1.1V12H32.2z"/>
	<path class="st14" d="M35.6,10.2c0-1,0.7-1.8,1.8-1.8c1.1,0,1.8,0.8,1.8,1.8c0,1-0.7,1.8-1.8,1.8C36.2,12,35.6,11.2,35.6,10.2z
		 M38.3,10.2c0-0.5-0.3-1-0.9-1c-0.6,0-0.9,0.5-0.9,1c0,0.5,0.3,1,0.9,1C37.9,11.2,38.3,10.8,38.3,10.2z"/>
	<path class="st14" d="M42.2,12v-0.4C42,11.8,41.6,12,41,12c-0.8,0-1.1-0.4-1.1-1.1V8.5h0.9v2.1c0,0.5,0.2,0.6,0.6,0.6
		c0.4,0,0.6-0.2,0.8-0.4V8.5h0.9V12H42.2z"/>
	<path class="st14" d="M44,12V8.5h0.9V9c0.2-0.3,0.7-0.6,1.1-0.6v0.9c-0.1,0-0.1,0-0.2,0c-0.3,0-0.7,0.2-0.8,0.4V12H44z"/>
	<path class="st14" d="M48.1,11.3l0.6-0.8c0.3,0.3,0.9,0.6,1.5,0.6c0.6,0,0.8-0.3,0.8-0.5c0-0.8-2.7-0.3-2.7-2.1
		c0-0.8,0.7-1.5,1.8-1.5c0.8,0,1.4,0.2,1.9,0.7l-0.6,0.7C51,8.2,50.5,8,50,8c-0.4,0-0.7,0.2-0.7,0.5c0,0.8,2.7,0.2,2.7,2
		c0,0.9-0.6,1.5-1.9,1.5C49.2,12,48.6,11.7,48.1,11.3z"/>
	<path class="st14" d="M52.7,12V7.2h0.9V12H52.7z"/>
	<path class="st14" d="M56.6,12v-0.4c-0.2,0.3-0.6,0.4-1.1,0.4c-0.6,0-1.2-0.4-1.2-1.1c0-0.8,0.6-1.1,1.2-1.1c0.5,0,0.9,0.2,1.1,0.4
		V9.7c0-0.3-0.3-0.6-0.8-0.6c-0.4,0-0.7,0.1-1,0.4L54.5,9c0.4-0.4,1-0.5,1.5-0.5c0.8,0,1.5,0.3,1.5,1.3V12H56.6z M56.6,11.1v-0.4
		c-0.1-0.2-0.4-0.3-0.7-0.3c-0.4,0-0.6,0.2-0.6,0.5c0,0.3,0.3,0.5,0.6,0.5C56.1,11.4,56.4,11.3,56.6,11.1z"/>
	<path class="st14" d="M58.2,10.2c0-1.1,0.8-1.8,1.8-1.8c0.7,0,1.1,0.3,1.4,0.6l-0.6,0.6c-0.2-0.2-0.4-0.4-0.7-0.4
		c-0.5,0-0.9,0.4-0.9,1c0,0.6,0.4,1,0.9,1c0.3,0,0.6-0.1,0.7-0.4l0.6,0.5C61.1,11.7,60.7,12,60,12C58.9,12,58.2,11.3,58.2,10.2z"/>
	<path class="st14" d="M64.2,12l-0.9-1.3l-0.4,0.4V12h-0.9V7.2h0.9V10l1.3-1.5h1.1l-1.4,1.6l1.4,1.9H64.2z"/>
	<path class="st14" d="M65.7,11.5c0-0.3,0.3-0.6,0.6-0.6s0.6,0.3,0.6,0.6c0,0.3-0.3,0.6-0.6,0.6S65.7,11.8,65.7,11.5z M65.8,10.4
		l-0.1-3.2h1.1l-0.1,3.2H65.8z"/>
</g>
</svg>
