<?xml version="1.0" encoding="utf-8"?>
<!-- Generator: Adobe Illustrator 19.0.0, SVG Export Plug-In . SVG Version: 6.00 Build 0)  -->
<svg version="1.1" id="Layer_1" xmlns="http://www.w3.org/2000/svg" xmlns:xlink="http://www.w3.org/1999/xlink" x="0px" y="0px"
	 viewBox="-295 1320.6 2408.5 360.4" style="enable-background:new -295 1320.6 2408.5 360.4;" xml:space="preserve">
<style type="text/css">
	.st0{fill:#962F30;}
</style>
<path id="XMLID_7_" class="st0" d="M-128.2,1331.4h23.9l155.5,336.3H14l-42.5-93.5h-177l-42.5,93.5h-35.7L-128.2,1331.4z
	 M-39,1541.7l-77.8-173.1l-78.2,173.1H-39z"/>
<path id="XMLID_10_" class="st0" d="M104.6,1528.8v-195.1h34.8v192.7c0,78.7,32.4,114,103,114c67.7,0,101.1-31,101.1-111.6v-195.1
	h34.8v192.2c0,95.9-55.8,146.9-136.9,146.9C161.3,1672.9,104.6,1622.3,104.6,1528.8z"/>
<path id="XMLID_12_" class="st0" d="M554.8,1366.7H448.5v-33H706v32.9H589.7v301h-34.8v-300.9H554.8z"/>
<path id="XMLID_17_" class="st0" d="M1160.6,1333.7h34.8v301h186v32.9h-220.9L1160.6,1333.7L1160.6,1333.7z"/>
<path id="XMLID_19_" class="st0" d="M1582.8,1331.4h23.8l155.5,336.3h-37.2l-42.5-93.5h-177l-42.5,93.5h-35.8L1582.8,1331.4z
	 M1672,1541.7l-77.8-173.1l-78.2,173.1H1672z"/>
<path id="XMLID_22_" class="st0" d="M1832.7,1333.7h137.9c37.7,0,68.2,11,86.8,29.6c13.8,13.8,21.5,31.5,21.5,52.5v1
	c0,45.3-29.6,68.2-56.8,79.2c40.1,10.5,75.4,33.4,75.4,79.7v1c0,55.8-47.7,91.1-119.7,91.1h-145L1832.7,1333.7L1832.7,1333.7z
	 M1967.7,1477.8c50.1,0,75.9-14.3,75.9-58.7v-1c0-36.7-20-51.5-73.5-51.5h-102.6v111.2H1967.7z M1978.7,1634.7
	c57.2,0,83.5-16.2,83.5-58.2v-1c0-41-25.8-54.9-91.6-54.9h-103v114L1978.7,1634.7L1978.7,1634.7z"/>
<path id="XMLID_32_" class="st0" d="M1076.2,1499.7c0-34.3-9.4-67.1-26.5-94.7l-23.4,30.4c9.5,19.5,14.7,41.8,14.7,65.3v0.9
	c0,77-55.2,139.3-132.2,139.3c-13.3,0-28-2.9-39.9-6.4l-20.5,26.9c17.8,6.4,38.4,11.9,59.5,11.9c101.1,0,168.4-81.6,168.4-172.7
	C1076.7,1500.2,1076.7,1500.2,1076.2,1499.7z"/>
<path id="XMLID_33_" class="st0" d="M775.6,1500.7v-0.9c0-77,55.2-139.3,132.2-139.3c33.9,0,63.7,12.2,86.5,32.5l23.5-25.4
	c-28.2-24.5-65.3-39.5-109.1-39.5c-101.1,0-168.4,81.6-168.4,172.7v1c0,2.9,0.1,3.9,0.2,6.8l40.2,31.8
	C777.4,1527.6,775.6,1514.4,775.6,1500.7z"/>
<polygon id="XMLID_2_" class="st0" points="719.6,1502.8 827.7,1589.6 1050.1,1345.6 1070.7,1362.2 832.1,1666.1 697.7,1519.6 "/>
</svg>
