<?xml version="1.0" encoding="utf-8"?>
<!-- Generator: Adobe Illustrator 21.0.0, SVG Export Plug-In . SVG Version: 6.00 Build 0)  -->
<svg version="1.1" id="Layer_1" xmlns="http://www.w3.org/2000/svg" xmlns:xlink="http://www.w3.org/1999/xlink" x="0px" y="0px"
	 viewBox="0 0 428.1 386.2" style="enable-background:new 0 0 428.1 386.2;" xml:space="preserve">
<style type="text/css">
	.st0{fill:#FFFFFF;}
</style>
<path id="XMLID_32_" class="st0" d="M392.3,193.2c0-34.3-9.4-67.1-26.5-94.7l-23.4,30.4c9.5,19.5,14.7,41.8,14.7,65.3v0.9
	c0,77-55.2,139.3-132.2,139.3c-13.3,0-28-2.9-39.9-6.4l-20.5,26.9c17.8,6.4,38.4,11.9,59.5,11.9c101.1,0,168.4-81.6,168.4-172.7
	C392.8,193.7,392.8,193.7,392.3,193.2z"/>
<path id="XMLID_33_" class="st0" d="M91.7,194.2v-0.9c0-77,55.2-139.3,132.2-139.3c33.9,0,63.7,12.2,86.5,32.5L333.9,61
	c-28.2-24.5-65.3-39.5-109.1-39.5c-101.1,0-168.4,81.6-168.4,172.7v1c0,2.9,0.1,3.9,0.2,6.8l40.2,31.8
	C93.5,221.1,91.7,207.9,91.7,194.2z"/>
<polygon id="XMLID_2_" class="st0" points="35.7,196.2 143.8,283.1 366.2,39.1 386.8,55.7 148.2,359.6 13.8,213.1 "/>
</svg>
